<svg width="45" height="45" viewBox="0 0 45 45" fill="none" xmlns="http://www.w3.org/2000/svg">
<path d="M27.28 12.79H17.73C15.01 12.79 12.79 15 12.79 17.73V27.28C12.79 30 15 32.22 17.73 32.22H27.28C30 32.22 32.22 30.01 32.22 27.28V17.73C32.21 15 30 12.79 27.28 12.79ZM22.5 28.89C18.98 28.89 16.11 26.02 16.11 22.5C16.11 18.98 18.98 16.11 22.5 16.11C26.02 16.11 28.89 18.98 28.89 22.5C28.89 26.02 26.02 28.89 22.5 28.89ZM29.21 16.82C28.61 16.82 28.13 16.34 28.13 15.74C28.13 15.14 28.61 14.66 29.21 14.66C29.81 14.66 30.29 15.14 30.29 15.74C30.29 16.34 29.81 16.82 29.21 16.82Z" fill="white"/>
<path d="M26.3844 22.5471C26.4101 20.4042 24.6938 18.6463 22.551 18.6205C20.4081 18.5948 18.6501 20.3111 18.6244 22.454C18.5987 24.5968 20.315 26.3548 22.4578 26.3805C24.6007 26.4063 26.3587 24.69 26.3844 22.5471Z" fill="white"/>
<path d="M22.5 0C10.07 0 0 10.07 0 22.5C0 34.93 10.07 45 22.5 45C34.93 45 45 34.93 45 22.5C45 10.07 34.93 0 22.5 0ZM35 27.28C35 31.54 31.54 35 27.28 35H17.73C13.47 35 10.01 31.54 10.01 27.28V17.73C10.01 13.47 13.47 10.01 17.73 10.01H27.28C31.54 10.01 35 13.47 35 17.73V27.28Z" fill="white"/>
</svg>
