<svg width="45" height="45" viewBox="0 0 45 45" fill="none" xmlns="http://www.w3.org/2000/svg">
<path d="M22.5 0C10.07 0 0 10.07 0 22.5C0 34.93 10.07 45 22.5 45C34.93 45 45 34.93 45 22.5C45 10.07 34.93 0 22.5 0ZM32.53 17.31C32.53 17.31 33.26 23.97 28 28.96C20.63 35.95 10 30.51 10 30.51C15.11 30.57 17.27 28.42 17.27 28.42C13.07 27.7 12.65 24.7 12.65 24.7C13.37 25.15 14.94 24.7 14.94 24.7C10.26 22.55 10.99 19.72 10.99 19.72C12.35 20.48 13.37 20.2 13.37 20.2C9.73 17.04 11.79 13.69 11.79 13.69C18.18 19.77 22.29 18.52 22.29 18.52C22 14.24 24.53 12.58 27.26 12.49C29.56 12.41 30.88 14.01 30.88 14.01C32.65 14.16 34.31 12.98 34.31 12.98C34.16 14.41 32.22 15.62 32.22 15.62C33.23 15.71 34.99 15.16 34.99 15.16C34.08 16.83 32.53 17.31 32.53 17.31Z" fill="white"/>
</svg>
