<svg width="34" height="45" viewBox="0 0 34 45" fill="none" xmlns="http://www.w3.org/2000/svg">
<path d="M16.875 0C12.4013 0.00593447 8.11251 1.78573 4.94912 4.94912C1.78573 8.11251 0.00593447 12.4013 0 16.875C0 28.9898 15.7219 44.1632 16.3898 44.8031C16.5198 44.9294 16.6938 45 16.875 45C17.0562 45 17.2302 44.9294 17.3601 44.8031C18.0281 44.1632 33.75 28.9898 33.75 16.875C33.744 12.4013 31.9642 8.11251 28.8008 4.94912C25.6375 1.78573 21.3487 0.00593447 16.875 0V0ZM16.875 24.6093C15.3453 24.6093 13.8499 24.1557 12.578 23.3059C11.3061 22.456 10.3148 21.2481 9.72936 19.8348C9.14396 18.4215 8.9908 16.8664 9.28923 15.3661C9.58766 13.8658 10.3243 12.4876 11.406 11.406C12.4876 10.3243 13.8658 9.58766 15.3661 9.28923C16.8664 8.9908 18.4215 9.14396 19.8348 9.72936C21.2481 10.3148 22.456 11.3061 23.3059 12.578C24.1557 13.8499 24.6094 15.3453 24.6094 16.875C24.6081 18.9259 23.7929 20.8924 22.3426 22.3426C20.8924 23.7929 18.9259 24.6081 16.875 24.6093Z" fill="#C32026"/>
</svg>
